#define MmaxTB_width 14
#define MmaxTB_height 14
static char MmaxTB_bits[] = {
   0x00, 0x00, 0x00, 0x00, 0xfc, 0x0f, 0x04, 0x00, 0x04, 0x00, 0x04, 0x00,
   0x04, 0x00, 0x04, 0x00, 0x04, 0x00, 0x04, 0x00, 0x04, 0x00, 0x04, 0x00,
   0x00, 0x00, 0x00, 0x00};
