#define MmaxBT_width 14
#define MmaxBT_height 14
static char MmaxBT_bits[] = {
   0x00, 0x00, 0x00, 0x00, 0x00, 0x00, 0x00, 0x08, 0x00, 0x08, 0x00, 0x08,
   0x00, 0x08, 0x00, 0x08, 0x00, 0x08, 0x00, 0x08, 0x00, 0x08, 0xf8, 0x0f,
   0x00, 0x00, 0x00, 0x00};
