#define Mmin14_width 16
#define Mmin14_height 16
static char Mmin14_bits[] = {
   0xff, 0xff, 0x01, 0x80, 0x01, 0x80, 0x01, 0x80, 0x01, 0x80, 0x01, 0x80,
   0xc1, 0x83, 0x41, 0x82, 0x41, 0x82, 0xc1, 0x83, 0x01, 0x80, 0x01, 0x80,
   0x01, 0x80, 0x01, 0x80, 0x01, 0x80, 0xff, 0xff};
