#define MnailInBT_width 14
#define MnailInBT_height 14
static char MnailInBT_bits[] = {
   0x00, 0x00, 0x00, 0x00, 0x00, 0x00, 0x08, 0x00, 0x08, 0x00, 0x08, 0x10,
   0xc8, 0x1f, 0x04, 0x00, 0x08, 0x00, 0x0c, 0x00, 0x00, 0x00, 0x0e, 0x00,
   0x04, 0x00, 0x04, 0x00};
