#define MnailOut_width 14
#define MnailOut_height 14
static char MnailOut_bits[] = {
   0x00, 0x00, 0x60, 0x07, 0xe0, 0x0f, 0x60, 0x1f, 0x00, 0x12, 0x00, 0x02,
   0x00, 0x07, 0x0e, 0x07, 0x04, 0x07, 0x04, 0x07, 0x04, 0x07, 0x04, 0x07,
   0x04, 0x07, 0x04, 0x07};
