#define MnailInTB_width 14
#define MnailInTB_height 14
static char MnailInTB_bits[] = {
   0x00, 0x00, 0x00, 0x00, 0x08, 0x00, 0x04, 0x00, 0xc2, 0x1f, 0x32, 0x00,
   0x02, 0x00, 0x00, 0x00, 0x02, 0x00, 0x02, 0x00, 0x00, 0x00, 0x00, 0x00,
   0x00, 0x00, 0x00, 0x00};
