#define MnailOutTB_width 14
#define MnailOutTB_height 14
static char MnailOutTB_bits[] = {
   0x00, 0x00, 0x60, 0x07, 0xa0, 0x00, 0x20, 0x00, 0x00, 0x02, 0x00, 0x02,
   0x00, 0x01, 0x00, 0x01, 0x00, 0x01, 0x00, 0x01, 0x00, 0x01, 0x00, 0x01,
   0x00, 0x01, 0x00, 0x01};
