#define MnailIn_width 14
#define MnailIn_height 14
static char MnailIn_bits[] = {
   0x00, 0x00, 0x00, 0x00, 0x18, 0x00, 0x0c, 0x00, 0xce, 0x1f, 0xfe, 0x1f,
   0xce, 0x1f, 0x04, 0x00, 0x0e, 0x00, 0x0e, 0x00, 0x00, 0x00, 0x0e, 0x00,
   0x04, 0x00, 0x04, 0x00};
