#define MnailOutBT_width 14
#define MnailOutBT_height 14
static char MnailOutBT_bits[] = {
   0x00, 0x00, 0x00, 0x00, 0x40, 0x1f, 0x00, 0x10, 0x00, 0x00, 0x00, 0x00,
   0x00, 0x04, 0x0e, 0x04, 0x04, 0x04, 0x04, 0x04, 0x04, 0x04, 0x04, 0x04,
   0x04, 0x04, 0x04, 0x06};
