#define NailOutBT_width 20
#define NailOutBT_height 16
static char NailOutBT_bits[] = {
   0x00, 0x00, 0x00, 0x00, 0x00, 0x00, 0x00, 0x10, 0x00, 0x40, 0x3f, 0x00,
   0x00, 0x20, 0x00, 0x00, 0x00, 0x00, 0x00, 0x04, 0x00, 0x0e, 0x04, 0x00,
   0x04, 0x04, 0x00, 0x04, 0x04, 0x00, 0x04, 0x04, 0x00, 0x04, 0x04, 0x00,
   0x04, 0x04, 0x00, 0x04, 0x04, 0x00, 0x04, 0x04, 0x00, 0x04, 0x06, 0x00};
