#define foo_width 20
#define foo_height 16
static char foo_bits[] = {
   0x00, 0x00, 0x00, 0x00, 0x00, 0x00, 0x18, 0x00, 0x00, 0x0c, 0x00, 0x00,
   0x0e, 0x00, 0x00, 0xce, 0xff, 0x00, 0xfe, 0xff, 0x00, 0xce, 0xff, 0x00,
   0x04, 0x00, 0x00, 0x0e, 0x00, 0x00, 0x0e, 0x00, 0x00, 0x00, 0x00, 0x00,
   0x0e, 0x00, 0x00, 0x04, 0x00, 0x00, 0x04, 0x00, 0x00, 0x04, 0x00, 0x00};
