#define foo_width 20
#define foo_height 16
static char foo_bits[] = {
   0x00, 0x00, 0x00, 0x60, 0x0f, 0x00, 0xe0, 0x1f, 0x00, 0x60, 0x3f, 0x00,
   0x00, 0x22, 0x00, 0x00, 0x02, 0x00, 0x00, 0x07, 0x00, 0x0e, 0x07, 0x00,
   0x04, 0x07, 0x00, 0x04, 0x07, 0x00, 0x04, 0x07, 0x00, 0x04, 0x07, 0x00,
   0x04, 0x07, 0x00, 0x04, 0x07, 0x00, 0x04, 0x07, 0x00, 0x04, 0x07, 0x00};
