#define NailInBT_width 20
#define NailInBT_height 16
static char NailInBT_bits[] = {
   0x00, 0x00, 0x00, 0x00, 0x00, 0x00, 0x00, 0x00, 0x00, 0x08, 0x00, 0x00,
   0x08, 0x00, 0x00, 0x08, 0x00, 0x00, 0x08, 0x80, 0x00, 0xc8, 0xff, 0x00,
   0x04, 0x00, 0x00, 0x08, 0x00, 0x00, 0x0c, 0x00, 0x00, 0x00, 0x00, 0x00,
   0x0e, 0x00, 0x00, 0x04, 0x00, 0x00, 0x04, 0x00, 0x00, 0x04, 0x00, 0x00};
