#define NailOutbb_width 20
#define NailOutbb_height 16
static char NailOutbb_bits[] = {
   0xff, 0xff, 0xff, 0x9f, 0xf0, 0xff, 0x1f, 0xe0, 0xff, 0x9f, 0xc0, 0xff,
   0xff, 0xdd, 0xff, 0xff, 0xfd, 0xff, 0xff, 0xf8, 0xff, 0xf1, 0xf8, 0xff,
   0xfb, 0xf8, 0xff, 0xfb, 0xf8, 0xff, 0xfb, 0xf8, 0xff, 0xfb, 0xf8, 0xff,
   0xfb, 0xf8, 0xff, 0xfb, 0xf8, 0xff, 0xfb, 0xf8, 0xff, 0xfb, 0xf8, 0xff};
