#define NailInbb_width 20
#define NailInbb_height 16
static char NailInbb_bits[] = {
   0xff, 0xff, 0xff, 0xff, 0xff, 0xff, 0xe7, 0xff, 0xff, 0xf3, 0xff, 0xff,
   0xf1, 0xff, 0xff, 0x31, 0x00, 0xff, 0x01, 0x00, 0xff, 0x31, 0x00, 0xff,
   0xfb, 0xff, 0xff, 0xf1, 0xff, 0xff, 0xf1, 0xff, 0xff, 0xff, 0xff, 0xff,
   0xf1, 0xff, 0xff, 0xfb, 0xff, 0xff, 0xfb, 0xff, 0xff, 0xfb, 0xff, 0xff};
