#define OLpinOutBT_width 36
#define OLpinOutBT_height 18
static char OLpinOutBT_bits[] = {
   0x00, 0x00, 0x00, 0x00, 0x00, 0x00, 0x00, 0x00, 0x00, 0x00, 0x00, 0x00,
   0x00, 0x00, 0x00, 0x00, 0x00, 0x00, 0x02, 0x00, 0x00, 0x00, 0x00, 0x02,
   0x08, 0x00, 0x00, 0x00, 0x02, 0x08, 0x00, 0x00, 0x00, 0x02, 0x08, 0x00,
   0x00, 0x00, 0x02, 0x08, 0x00, 0x80, 0x3f, 0x02, 0x09, 0x00, 0x00, 0x00,
   0xfe, 0x09, 0x00, 0x0c, 0x00, 0xfe, 0x0f, 0x00, 0x02, 0x80, 0x03, 0x0f,
   0x00, 0x02, 0x80, 0x03, 0x06, 0x00, 0x00, 0x80, 0x01, 0x00, 0x00, 0x00,
   0x00, 0x00, 0x00, 0x00, 0x00, 0x00, 0x00, 0x00, 0x00, 0x00, 0x00, 0x00,
   0x00, 0x00, 0x00, 0x00, 0x00, 0x00};
