#define OLpinOutTB_width 36
#define OLpinOutTB_height 18
static char OLpinOutTB_bits[] = {
   0x00, 0x00, 0x00, 0x00, 0x00, 0x00, 0x00, 0x00, 0x00, 0x00, 0x00, 0x00,
   0xc0, 0x01, 0x00, 0x00, 0x00, 0x40, 0x00, 0x06, 0x00, 0x00, 0x40, 0x00,
   0x01, 0x00, 0x00, 0x40, 0xfc, 0x01, 0x00, 0x00, 0x40, 0x00, 0x01, 0x00,
   0xc0, 0x7f, 0x00, 0x01, 0x00, 0x00, 0x40, 0x00, 0x00, 0x00, 0x00, 0x40,
   0x00, 0x00, 0x00, 0x00, 0x40, 0x00, 0x00, 0x00, 0x10, 0x40, 0x00, 0x00,
   0x00, 0x10, 0x40, 0x00, 0x00, 0x00, 0x0c, 0x40, 0x00, 0x00, 0x00, 0x00,
   0x00, 0x00, 0x00, 0x00, 0x00, 0x00, 0x00, 0x00, 0x00, 0x00, 0x00, 0x00,
   0x00, 0x00, 0x00, 0x00, 0x00, 0x00};
