#define OLpulldown10_width 29
#define OLpulldown10_height 15
static char OLpulldown10_bits[] = {
   0x00, 0xff, 0x07, 0x00, 0x80, 0x00, 0x08, 0x00, 0x80, 0x00, 0x18, 0x00,
   0x80, 0xfc, 0x19, 0x00, 0x80, 0x04, 0x19, 0x00, 0x80, 0x88, 0x18, 0x00,
   0x80, 0x88, 0x18, 0x00, 0x80, 0x50, 0x18, 0x00, 0x80, 0x50, 0x18, 0x00,
   0x80, 0x20, 0x18, 0x00, 0x80, 0x00, 0x18, 0x00, 0x00, 0xff, 0x1f, 0x00,
   0x00, 0xfe, 0x0f, 0x00, 0x00, 0x00, 0x00, 0x00, 0x00, 0x00, 0x00, 0x00};
