#define Ticon_width 20
#define Ticon_height 17
static char Ticon_bits[] = {
   0x00, 0x00, 0x00, 0xfe, 0xff, 0x00, 0x02, 0x80, 0x00, 0xfa, 0xbe, 0x00,
   0xfa, 0xbe, 0x00, 0xfa, 0xbe, 0x00, 0xfa, 0xbe, 0x00, 0xfa, 0xbe, 0x00,
   0x02, 0x80, 0x00, 0xfa, 0xbe, 0x00, 0xfa, 0xbe, 0x00, 0xfa, 0xbe, 0x00,
   0xfa, 0xbe, 0x00, 0xfa, 0xbe, 0x00, 0x02, 0x80, 0x00, 0xfe, 0xff, 0x00,
   0x00, 0x00, 0x00};
