#define Tresize_width 17
#define Tresize_height 17
static char Tresize_bits[] = {
   0x00, 0x00, 0x00, 0xfe, 0xff, 0x00, 0x02, 0x80, 0x00, 0x02, 0x80, 0x00,
   0x02, 0x80, 0x00, 0x02, 0x80, 0x00, 0xfe, 0x87, 0x00, 0x02, 0x84, 0x00,
   0x02, 0x84, 0x00, 0x02, 0x84, 0x00, 0x7e, 0x84, 0x00, 0x42, 0x84, 0x00,
   0x42, 0x84, 0x00, 0x42, 0x84, 0x00, 0x42, 0x84, 0x00, 0xfe, 0xff, 0x00,
   0x00, 0x00, 0x00};
