#define uwm_resize_box_width 11
#define uwm_resize_box_height 11
static char uwm_resize_box_bits[] = {
   0xff, 0x07, 0x07, 0x00, 0x4f, 0x00, 0x5d, 0x00, 0x79, 0x00, 0x71, 0x00,
   0x7d, 0x00, 0x01, 0x00, 0x01, 0x00, 0x01, 0x00, 0x01, 0x00};
