#define uwm_black_bar_close_box_width 16
#define uwm_black_bar_close_box_height 16
#define uwm_black_bar_close_box_x_hot -1
#define uwm_black_bar_close_box_y_hot -1
static char uwm_black_bar_close_box_bits[] = {
   0x55, 0x15, 0x00, 0x00, 0x01, 0x10, 0x00, 0x00, 0x01, 0x10, 0x50, 0x01,
   0x01, 0x10, 0x40, 0x00, 0x01, 0x10, 0x50, 0x01, 0x01, 0x10, 0x00, 0x00,
   0x01, 0x10, 0x00, 0x00, 0x55, 0x15, 0x00, 0x00};
