#define uwm_white_bar_close_box_width 12
#define uwm_white_bar_close_box_height 16
#define uwm_white_bar_close_box_x_hot -1
#define uwm_white_bar_close_box_y_hot -1
static char uwm_white_bar_close_box_bits[] = {
   0x00, 0x00, 0x00, 0x00, 0x00, 0x00, 0x00, 0x00, 0xf0, 0x00, 0x60, 0x00,
   0x60, 0x00, 0x60, 0x00, 0x60, 0x00, 0xf0, 0x00, 0x00, 0x00, 0x00, 0x00,
   0x00, 0x00, 0x00, 0x00, 0x00, 0x00, 0x00, 0x00};
